<svg xmlns="http://www.w3.org/2000/svg" xmlns:xlink="http://www.w3.org/1999/xlink" version="1.0" viewBox="0 0 720 720" enable-background="new 0 0 100 100" xml:space="preserve">
	
<svg xmlns="http://www.w3.org/2000/svg" xmlns:xlink="http://www.w3.org/1999/xlink" version="1.1" width="720" height="720" viewBox="0 0 2000 2000" x="0" y="0" shape-rendering="crispEdges"><defs></defs><rect x="0" y="0" width="2000" height="2000" fill="#ffffff"></rect><svg viewBox="0 0 4 4" x="889" y="223" width="74" height="74" shape-rendering="auto"><path fill="#000000" d="M4,3.15V0.85A0.85,0.85,0,0,0,3.15,0H0.85A0.85,0.85,0,0,0,0,0.85V4H4Z"></path></svg><svg viewBox="0 0 4 4" x="963" y="223" width="74" height="74" shape-rendering="auto"><path fill="#000000" d="M3.15,4A0.85,0.85,0,0,0,4,3.15V4Z"></path></svg><svg viewBox="0 0 4 4" x="963" y="223" width="74" height="74" shape-rendering="auto"><path fill="#000000" d="M0.85,4A0.85,0.85,0,0,1,0,3.15V4Z"></path></svg><svg viewBox="0 0 4 4" x="1037" y="223" width="74" height="74" shape-rendering="auto"><path fill="#000000" d="M0.85,0A0.85,0.85,0,0,0,0,0.85V4H4V0H0.85Z"></path></svg><svg viewBox="0 0 4 4" x="1111" y="223" width="74" height="74" shape-rendering="auto"><path fill="#000000" d="M0.85,4h2.3A0.85,0.85,0,0,0,4,3.15V0.85A0.85,0.85,0,0,0,3.15,0H0V4Z"></path></svg><svg viewBox="0 0 4 4" x="815" y="297" width="74" height="74" shape-rendering="auto"><path fill="#000000" d="M3.15,4A0.85,0.85,0,0,0,4,3.15V4Z"></path></svg><svg viewBox="0 0 4 4" x="889" y="297" width="74" height="74" shape-rendering="auto"><rect fill="#000000" width="4" height="4"></rect></svg><svg viewBox="0 0 4 4" x="963" y="297" width="74" height="74" shape-rendering="auto"><rect fill="#000000" width="4" height="4"></rect></svg><svg viewBox="0 0 4 4" x="1037" y="297" width="74" height="74" shape-rendering="auto"><rect fill="#000000" width="4" height="4"></rect></svg><svg viewBox="0 0 4 4" x="1111" y="297" width="74" height="74" shape-rendering="auto"><path fill="#000000" d="M0.85,0H0V0.85A0.85,0.85,0,0,1,0.85,0Z"></path></svg><svg viewBox="0 0 4 4" x="1111" y="297" width="74" height="74" shape-rendering="auto"><path fill="#000000" d="M0.85,4A0.85,0.85,0,0,1,0,3.15V4Z"></path></svg><svg viewBox="0 0 4 4" x="815" y="371" width="74" height="74" shape-rendering="auto"><path fill="#000000" d="M3.15,0H0.85A0.85,0.85,0,0,0,0,0.85v2.3A0.85,0.85,0,0,0,0.85,4H4V0Z"></path></svg><svg viewBox="0 0 4 4" x="889" y="371" width="74" height="74" shape-rendering="auto"><rect fill="#000000" width="4" height="4"></rect></svg><svg viewBox="0 0 4 4" x="963" y="371" width="74" height="74" shape-rendering="auto"><path fill="#000000" d="M0.85,0H0V0.85A0.85,0.85,0,0,1,0.85,0Z"></path></svg><svg viewBox="0 0 4 4" x="963" y="371" width="74" height="74" shape-rendering="auto"><path fill="#000000" d="M4,0.85V0H3.15A0.85,0.85,0,0,1,4,0.85Z"></path></svg><svg viewBox="0 0 4 4" x="1037" y="371" width="74" height="74" shape-rendering="auto"><rect fill="#000000" width="4" height="4"></rect></svg><svg viewBox="0 0 4 4" x="1111" y="371" width="74" height="74" shape-rendering="auto"><path fill="#000000" d="M0.85,4h2.3A0.85,0.85,0,0,0,4,3.15V0.85A0.85,0.85,0,0,0,3.15,0H0V4Z"></path></svg><svg viewBox="0 0 4 4" x="815" y="445" width="74" height="74" shape-rendering="auto"><path fill="#000000" d="M4,0.85V0H3.15A0.85,0.85,0,0,1,4,0.85Z"></path></svg><svg viewBox="0 0 4 4" x="889" y="445" width="74" height="74" shape-rendering="auto"><path fill="#000000" d="M0,3.15A0.85,0.85,0,0,0,0.85,4h2.3A0.85,0.85,0,0,0,4,3.15V0H0V3.15Z"></path></svg><svg viewBox="0 0 4 4" x="1037" y="445" width="74" height="74" shape-rendering="auto"><path fill="#000000" d="M0,3.15A0.85,0.85,0,0,0,0.85,4h2.3A0.85,0.85,0,0,0,4,3.15V0H0V3.15Z"></path></svg><svg viewBox="0 0 4 4" x="1111" y="445" width="74" height="74" shape-rendering="auto"><path fill="#000000" d="M0.85,0H0V0.85A0.85,0.85,0,0,1,0.85,0Z"></path></svg><svg viewBox="0 0 4 4" x="963" y="519" width="74" height="74" shape-rendering="auto"><rect fill="#000000" width="4" height="4" rx="0.85"></rect></svg><svg viewBox="0 0 4 4" x="1111" y="519" width="74" height="74" shape-rendering="auto"><path fill="#000000" d="M4,3.15V0.85A0.85,0.85,0,0,0,3.15,0H0.85A0.85,0.85,0,0,0,0,0.85V4H4Z"></path></svg><svg viewBox="0 0 4 4" x="1111" y="593" width="74" height="74" shape-rendering="auto"><rect fill="#000000" width="4" height="4"></rect></svg><svg viewBox="0 0 4 4" x="815" y="667" width="74" height="74" shape-rendering="auto"><path fill="#000000" d="M4,3.15V0.85A0.85,0.85,0,0,0,3.15,0H0.85A0.85,0.85,0,0,0,0,0.85V4H4Z"></path></svg><svg viewBox="0 0 4 4" x="889" y="667" width="74" height="74" shape-rendering="auto"><path fill="#000000" d="M0.85,4A0.85,0.85,0,0,1,0,3.15V4Z"></path></svg><svg viewBox="0 0 4 4" x="963" y="667" width="74" height="74" shape-rendering="auto"><rect fill="#000000" width="4" height="4" rx="0.85"></rect></svg><svg viewBox="0 0 4 4" x="1037" y="667" width="74" height="74" shape-rendering="auto"><path fill="#000000" d="M3.15,4A0.85,0.85,0,0,0,4,3.15V4Z"></path></svg><svg viewBox="0 0 4 4" x="1111" y="667" width="74" height="74" shape-rendering="auto"><rect fill="#000000" width="4" height="4"></rect></svg><svg viewBox="0 0 4 4" x="741" y="741" width="74" height="74" shape-rendering="auto"><path fill="#000000" d="M3.15,4A0.85,0.85,0,0,0,4,3.15V4Z"></path></svg><svg viewBox="0 0 4 4" x="815" y="741" width="74" height="74" shape-rendering="auto"><rect fill="#000000" width="4" height="4"></rect></svg><svg viewBox="0 0 4 4" x="889" y="741" width="74" height="74" shape-rendering="auto"><path fill="#000000" d="M3.15,0A0.85,0.85,0,0,1,4,0.85V4H0V0H3.15Z"></path></svg><svg viewBox="0 0 4 4" x="963" y="741" width="74" height="74" shape-rendering="auto"><path fill="#000000" d="M3.15,4A0.85,0.85,0,0,0,4,3.15V4Z"></path></svg><svg viewBox="0 0 4 4" x="963" y="741" width="74" height="74" shape-rendering="auto"><path fill="#000000" d="M0.85,4A0.85,0.85,0,0,1,0,3.15V4Z"></path></svg><svg viewBox="0 0 4 4" x="1037" y="741" width="74" height="74" shape-rendering="auto"><path fill="#000000" d="M0.85,0A0.85,0.85,0,0,0,0,0.85V4H4V0H0.85Z"></path></svg><svg viewBox="0 0 4 4" x="1111" y="741" width="74" height="74" shape-rendering="auto"><path fill="#000000" d="M4,3.15A0.85,0.85,0,0,1,3.15,4H0V0H4V3.15Z"></path></svg><svg viewBox="0 0 4 4" x="223" y="815" width="74" height="74" shape-rendering="auto"><path fill="#000000" d="M3.15,0H0.85A0.85,0.85,0,0,0,0,0.85v2.3A0.85,0.85,0,0,0,0.85,4H4V0Z"></path></svg><svg viewBox="0 0 4 4" x="297" y="815" width="74" height="74" shape-rendering="auto"><rect fill="#000000" width="4" height="4"></rect></svg><svg viewBox="0 0 4 4" x="371" y="815" width="74" height="74" shape-rendering="auto"><path fill="#000000" d="M0.85,4h2.3A0.85,0.85,0,0,0,4,3.15V0.85A0.85,0.85,0,0,0,3.15,0H0V4Z"></path></svg><svg viewBox="0 0 4 4" x="445" y="815" width="74" height="74" shape-rendering="auto"><path fill="#000000" d="M3.15,4A0.85,0.85,0,0,0,4,3.15V4Z"></path></svg><svg viewBox="0 0 4 4" x="519" y="815" width="74" height="74" shape-rendering="auto"><path fill="#000000" d="M0.85,0A0.85,0.85,0,0,0,0,0.85V4H4V0H0.85Z"></path></svg><svg viewBox="0 0 4 4" x="593" y="815" width="74" height="74" shape-rendering="auto"><rect fill="#000000" width="4" height="4"></rect></svg><svg viewBox="0 0 4 4" x="667" y="815" width="74" height="74" shape-rendering="auto"><rect fill="#000000" width="4" height="4"></rect></svg><svg viewBox="0 0 4 4" x="741" y="815" width="74" height="74" shape-rendering="auto"><rect fill="#000000" width="4" height="4"></rect></svg><svg viewBox="0 0 4 4" x="815" y="815" width="74" height="74" shape-rendering="auto"><rect fill="#000000" width="4" height="4"></rect></svg><svg viewBox="0 0 4 4" x="889" y="815" width="74" height="74" shape-rendering="auto"><rect fill="#000000" width="4" height="4"></rect></svg><svg viewBox="0 0 4 4" x="963" y="815" width="74" height="74" shape-rendering="auto"><rect fill="#000000" width="4" height="4"></rect></svg><svg viewBox="0 0 4 4" x="1037" y="815" width="74" height="74" shape-rendering="auto"><path fill="#000000" d="M4,3.15A0.85,0.85,0,0,1,3.15,4H0V0H4V3.15Z"></path></svg><svg viewBox="0 0 4 4" x="1111" y="815" width="74" height="74" shape-rendering="auto"><path fill="#000000" d="M0.85,0H0V0.85A0.85,0.85,0,0,1,0.85,0Z"></path></svg><svg viewBox="0 0 4 4" x="1185" y="815" width="74" height="74" shape-rendering="auto"><path fill="#000000" d="M3.15,0H0.85A0.85,0.85,0,0,0,0,0.85v2.3A0.85,0.85,0,0,0,0.85,4H4V0Z"></path></svg><svg viewBox="0 0 4 4" x="1259" y="815" width="74" height="74" shape-rendering="auto"><path fill="#000000" d="M3.15,0A0.85,0.85,0,0,1,4,0.85V4H0V0H3.15Z"></path></svg><svg viewBox="0 0 4 4" x="1555" y="815" width="74" height="74" shape-rendering="auto"><path fill="#000000" d="M4,3.15V0.85A0.85,0.85,0,0,0,3.15,0H0.85A0.85,0.85,0,0,0,0,0.85V4H4Z"></path></svg><svg viewBox="0 0 4 4" x="1629" y="815" width="74" height="74" shape-rendering="auto"><path fill="#000000" d="M0.85,4A0.85,0.85,0,0,1,0,3.15V4Z"></path></svg><svg viewBox="0 0 4 4" x="445" y="889" width="74" height="74" shape-rendering="auto"><path fill="#000000" d="M0.85,0A0.85,0.85,0,0,0,0,0.85V4H4V0H0.85Z"></path></svg><svg viewBox="0 0 4 4" x="519" y="889" width="74" height="74" shape-rendering="auto"><path fill="#000000" d="M4,3.15A0.85,0.85,0,0,1,3.15,4H0V0H4V3.15Z"></path></svg><svg viewBox="0 0 4 4" x="593" y="889" width="74" height="74" shape-rendering="auto"><path fill="#000000" d="M0.85,0H0V0.85A0.85,0.85,0,0,1,0.85,0Z"></path></svg><svg viewBox="0 0 4 4" x="667" y="889" width="74" height="74" shape-rendering="auto"><path fill="#000000" d="M4,0.85V0H3.15A0.85,0.85,0,0,1,4,0.85Z"></path></svg><svg viewBox="0 0 4 4" x="667" y="889" width="74" height="74" shape-rendering="auto"><path fill="#000000" d="M3.15,4A0.85,0.85,0,0,0,4,3.15V4Z"></path></svg><svg viewBox="0 0 4 4" x="741" y="889" width="74" height="74" shape-rendering="auto"><rect fill="#000000" width="4" height="4"></rect></svg><svg viewBox="0 0 4 4" x="815" y="889" width="74" height="74" shape-rendering="auto"><rect fill="#000000" width="4" height="4"></rect></svg><svg viewBox="0 0 4 4" x="889" y="889" width="74" height="74" shape-rendering="auto"><rect fill="#000000" width="4" height="4"></rect></svg><svg viewBox="0 0 4 4" x="963" y="889" width="74" height="74" shape-rendering="auto"><path fill="#000000" d="M0.85,0H0V0.85A0.85,0.85,0,0,1,0.85,0Z"></path></svg><svg viewBox="0 0 4 4" x="963" y="889" width="74" height="74" shape-rendering="auto"><path fill="#000000" d="M0.85,4A0.85,0.85,0,0,1,0,3.15V4Z"></path></svg><svg viewBox="0 0 4 4" x="1185" y="889" width="74" height="74" shape-rendering="auto"><path fill="#000000" d="M4,0.85V0H3.15A0.85,0.85,0,0,1,4,0.85Z"></path></svg><svg viewBox="0 0 4 4" x="1259" y="889" width="74" height="74" shape-rendering="auto"><path fill="#000000" d="M0,3.15A0.85,0.85,0,0,0,0.85,4h2.3A0.85,0.85,0,0,0,4,3.15V0H0V3.15Z"></path></svg><svg viewBox="0 0 4 4" x="1555" y="889" width="74" height="74" shape-rendering="auto"><path fill="#000000" d="M0,3.15A0.85,0.85,0,0,0,0.85,4H4V0H0V3.15Z"></path></svg><svg viewBox="0 0 4 4" x="1629" y="889" width="74" height="74" shape-rendering="auto"><path fill="#000000" d="M0.85,4h2.3A0.85,0.85,0,0,0,4,3.15V0.85A0.85,0.85,0,0,0,3.15,0H0V4Z"></path></svg><svg viewBox="0 0 4 4" x="223" y="963" width="74" height="74" shape-rendering="auto"><path fill="#000000" d="M0.85,0A0.85,0.85,0,0,0,0,0.85V4H4V0H0.85Z"></path></svg><svg viewBox="0 0 4 4" x="297" y="963" width="74" height="74" shape-rendering="auto"><path fill="#000000" d="M0.85,4h2.3A0.85,0.85,0,0,0,4,3.15V0.85A0.85,0.85,0,0,0,3.15,0H0V4Z"></path></svg><svg viewBox="0 0 4 4" x="445" y="963" width="74" height="74" shape-rendering="auto"><path fill="#000000" d="M0,3.15A0.85,0.85,0,0,0,0.85,4h2.3A0.85,0.85,0,0,0,4,3.15V0H0V3.15Z"></path></svg><svg viewBox="0 0 4 4" x="519" y="963" width="74" height="74" shape-rendering="auto"><path fill="#000000" d="M0.85,0H0V0.85A0.85,0.85,0,0,1,0.85,0Z"></path></svg><svg viewBox="0 0 4 4" x="593" y="963" width="74" height="74" shape-rendering="auto"><path fill="#000000" d="M0.85,0A0.85,0.85,0,0,0,0,0.85V4H4V0H0.85Z"></path></svg><svg viewBox="0 0 4 4" x="667" y="963" width="74" height="74" shape-rendering="auto"><rect fill="#000000" width="4" height="4"></rect></svg><svg viewBox="0 0 4 4" x="741" y="963" width="74" height="74" shape-rendering="auto"><path fill="#000000" d="M4,3.15A0.85,0.85,0,0,1,3.15,4H0V0H4V3.15Z"></path></svg><svg viewBox="0 0 4 4" x="815" y="963" width="74" height="74" shape-rendering="auto"><path fill="#000000" d="M0.85,0H0V0.85A0.85,0.85,0,0,1,0.85,0Z"></path></svg><svg viewBox="0 0 4 4" x="815" y="963" width="74" height="74" shape-rendering="auto"><path fill="#000000" d="M4,0.85V0H3.15A0.85,0.85,0,0,1,4,0.85Z"></path></svg><svg viewBox="0 0 4 4" x="889" y="963" width="74" height="74" shape-rendering="auto"><rect fill="#000000" width="4" height="4"></rect></svg><svg viewBox="0 0 4 4" x="963" y="963" width="74" height="74" shape-rendering="auto"><path fill="#000000" d="M0.85,4h2.3A0.85,0.85,0,0,0,4,3.15V0.85A0.85,0.85,0,0,0,3.15,0H0V4Z"></path></svg><svg viewBox="0 0 4 4" x="1111" y="963" width="74" height="74" shape-rendering="auto"><rect fill="#000000" width="4" height="4" rx="0.85"></rect></svg><svg viewBox="0 0 4 4" x="1407" y="963" width="74" height="74" shape-rendering="auto"><rect fill="#000000" width="4" height="4" rx="0.85"></rect></svg><svg viewBox="0 0 4 4" x="1703" y="963" width="74" height="74" shape-rendering="auto"><rect fill="#000000" width="4" height="4" rx="0.85"></rect></svg><svg viewBox="0 0 4 4" x="223" y="1037" width="74" height="74" shape-rendering="auto"><rect fill="#000000" width="4" height="4"></rect></svg><svg viewBox="0 0 4 4" x="297" y="1037" width="74" height="74" shape-rendering="auto"><path fill="#000000" d="M0.85,0H0V0.85A0.85,0.85,0,0,1,0.85,0Z"></path></svg><svg viewBox="0 0 4 4" x="593" y="1037" width="74" height="74" shape-rendering="auto"><rect fill="#000000" width="4" height="4"></rect></svg><svg viewBox="0 0 4 4" x="667" y="1037" width="74" height="74" shape-rendering="auto"><path fill="#000000" d="M0.85,0H0V0.85A0.85,0.85,0,0,1,0.85,0Z"></path></svg><svg viewBox="0 0 4 4" x="667" y="1037" width="74" height="74" shape-rendering="auto"><path fill="#000000" d="M0.85,4A0.85,0.85,0,0,1,0,3.15V4Z"></path></svg><svg viewBox="0 0 4 4" x="815" y="1037" width="74" height="74" shape-rendering="auto"><path fill="#000000" d="M3.15,4A0.85,0.85,0,0,0,4,3.15V4Z"></path></svg><svg viewBox="0 0 4 4" x="889" y="1037" width="74" height="74" shape-rendering="auto"><rect fill="#000000" width="4" height="4"></rect></svg><svg viewBox="0 0 4 4" x="963" y="1037" width="74" height="74" shape-rendering="auto"><path fill="#000000" d="M0.85,0H0V0.85A0.85,0.85,0,0,1,0.85,0Z"></path></svg><svg viewBox="0 0 4 4" x="963" y="1037" width="74" height="74" shape-rendering="auto"><path fill="#000000" d="M0.85,4A0.85,0.85,0,0,1,0,3.15V4Z"></path></svg><svg viewBox="0 0 4 4" x="1259" y="1037" width="74" height="74" shape-rendering="auto"><path fill="#000000" d="M4,3.15V0.85A0.85,0.85,0,0,0,3.15,0H0.85A0.85,0.85,0,0,0,0,0.85V4H4Z"></path></svg><svg viewBox="0 0 4 4" x="1555" y="1037" width="74" height="74" shape-rendering="auto"><path fill="#000000" d="M0.85,0A0.85,0.85,0,0,0,0,0.85V4H4V0H0.85Z"></path></svg><svg viewBox="0 0 4 4" x="1629" y="1037" width="74" height="74" shape-rendering="auto"><path fill="#000000" d="M0.85,4h2.3A0.85,0.85,0,0,0,4,3.15V0.85A0.85,0.85,0,0,0,3.15,0H0V4Z"></path></svg><svg viewBox="0 0 4 4" x="223" y="1111" width="74" height="74" shape-rendering="auto"><path fill="#000000" d="M0,3.15A0.85,0.85,0,0,0,0.85,4h2.3A0.85,0.85,0,0,0,4,3.15V0H0V3.15Z"></path></svg><svg viewBox="0 0 4 4" x="371" y="1111" width="74" height="74" shape-rendering="auto"><path fill="#000000" d="M3.15,0H0.85A0.85,0.85,0,0,0,0,0.85v2.3A0.85,0.85,0,0,0,0.85,4H4V0Z"></path></svg><svg viewBox="0 0 4 4" x="445" y="1111" width="74" height="74" shape-rendering="auto"><path fill="#000000" d="M0.85,4h2.3A0.85,0.85,0,0,0,4,3.15V0.85A0.85,0.85,0,0,0,3.15,0H0V4Z"></path></svg><svg viewBox="0 0 4 4" x="593" y="1111" width="74" height="74" shape-rendering="auto"><path fill="#000000" d="M0,3.15A0.85,0.85,0,0,0,0.85,4H4V0H0V3.15Z"></path></svg><svg viewBox="0 0 4 4" x="667" y="1111" width="74" height="74" shape-rendering="auto"><path fill="#000000" d="M0.85,4h2.3A0.85,0.85,0,0,0,4,3.15V0.85A0.85,0.85,0,0,0,3.15,0H0V4Z"></path></svg><svg viewBox="0 0 4 4" x="815" y="1111" width="74" height="74" shape-rendering="auto"><path fill="#000000" d="M0.85,0A0.85,0.85,0,0,0,0,0.85V4H4V0H0.85Z"></path></svg><svg viewBox="0 0 4 4" x="889" y="1111" width="74" height="74" shape-rendering="auto"><rect fill="#000000" width="4" height="4"></rect></svg><svg viewBox="0 0 4 4" x="963" y="1111" width="74" height="74" shape-rendering="auto"><path fill="#000000" d="M0.85,4h2.3A0.85,0.85,0,0,0,4,3.15V0.85A0.85,0.85,0,0,0,3.15,0H0V4Z"></path></svg><svg viewBox="0 0 4 4" x="1111" y="1111" width="74" height="74" shape-rendering="auto"><rect fill="#000000" width="4" height="4" rx="0.85"></rect></svg><svg viewBox="0 0 4 4" x="1259" y="1111" width="74" height="74" shape-rendering="auto"><path fill="#000000" d="M0,3.15A0.85,0.85,0,0,0,0.85,4h2.3A0.85,0.85,0,0,0,4,3.15V0H0V3.15Z"></path></svg><svg viewBox="0 0 4 4" x="1407" y="1111" width="74" height="74" shape-rendering="auto"><rect fill="#000000" width="4" height="4" rx="0.85"></rect></svg><svg viewBox="0 0 4 4" x="1555" y="1111" width="74" height="74" shape-rendering="auto"><path fill="#000000" d="M0,3.15A0.85,0.85,0,0,0,0.85,4h2.3A0.85,0.85,0,0,0,4,3.15V0H0V3.15Z"></path></svg><svg viewBox="0 0 4 4" x="1629" y="1111" width="74" height="74" shape-rendering="auto"><path fill="#000000" d="M0.85,0H0V0.85A0.85,0.85,0,0,1,0.85,0Z"></path></svg><svg viewBox="0 0 4 4" x="815" y="1185" width="74" height="74" shape-rendering="auto"><rect fill="#000000" width="4" height="4"></rect></svg><svg viewBox="0 0 4 4" x="889" y="1185" width="74" height="74" shape-rendering="auto"><path fill="#000000" d="M0.85,0H0V0.85A0.85,0.85,0,0,1,0.85,0Z"></path></svg><svg viewBox="0 0 4 4" x="963" y="1185" width="74" height="74" shape-rendering="auto"><path fill="#000000" d="M3.15,4A0.85,0.85,0,0,0,4,3.15V4Z"></path></svg><svg viewBox="0 0 4 4" x="1037" y="1185" width="74" height="74" shape-rendering="auto"><path fill="#000000" d="M4,3.15V0.85A0.85,0.85,0,0,0,3.15,0H0.85A0.85,0.85,0,0,0,0,0.85V4H4Z"></path></svg><svg viewBox="0 0 4 4" x="1185" y="1185" width="74" height="74" shape-rendering="auto"><path fill="#000000" d="M4,3.15V0.85A0.85,0.85,0,0,0,3.15,0H0.85A0.85,0.85,0,0,0,0,0.85V4H4Z"></path></svg><svg viewBox="0 0 4 4" x="1259" y="1185" width="74" height="74" shape-rendering="auto"><path fill="#000000" d="M3.15,4A0.85,0.85,0,0,0,4,3.15V4Z"></path></svg><svg viewBox="0 0 4 4" x="1259" y="1185" width="74" height="74" shape-rendering="auto"><path fill="#000000" d="M0.85,4A0.85,0.85,0,0,1,0,3.15V4Z"></path></svg><svg viewBox="0 0 4 4" x="1333" y="1185" width="74" height="74" shape-rendering="auto"><path fill="#000000" d="M4,3.15V0.85A0.85,0.85,0,0,0,3.15,0H0.85A0.85,0.85,0,0,0,0,0.85V4H4Z"></path></svg><svg viewBox="0 0 4 4" x="1481" y="1185" width="74" height="74" shape-rendering="auto"><path fill="#000000" d="M4,3.15V0.85A0.85,0.85,0,0,0,3.15,0H0.85A0.85,0.85,0,0,0,0,0.85V4H4Z"></path></svg><svg viewBox="0 0 4 4" x="1555" y="1185" width="74" height="74" shape-rendering="auto"><path fill="#000000" d="M3.15,4A0.85,0.85,0,0,0,4,3.15V4Z"></path></svg><svg viewBox="0 0 4 4" x="1555" y="1185" width="74" height="74" shape-rendering="auto"><path fill="#000000" d="M0.85,4A0.85,0.85,0,0,1,0,3.15V4Z"></path></svg><svg viewBox="0 0 4 4" x="1629" y="1185" width="74" height="74" shape-rendering="auto"><path fill="#000000" d="M4,3.15V0.85A0.85,0.85,0,0,0,3.15,0H0.85A0.85,0.85,0,0,0,0,0.85V4H4Z"></path></svg><svg viewBox="0 0 4 4" x="815" y="1259" width="74" height="74" shape-rendering="auto"><rect fill="#000000" width="4" height="4"></rect></svg><svg viewBox="0 0 4 4" x="963" y="1259" width="74" height="74" shape-rendering="auto"><path fill="#000000" d="M0.85,0A0.85,0.85,0,0,0,0,0.85V4H4V0H0.85Z"></path></svg><svg viewBox="0 0 4 4" x="1037" y="1259" width="74" height="74" shape-rendering="auto"><rect fill="#000000" width="4" height="4"></rect></svg><svg viewBox="0 0 4 4" x="1111" y="1259" width="74" height="74" shape-rendering="auto"><path fill="#000000" d="M3.15,4A0.85,0.85,0,0,0,4,3.15V4Z"></path></svg><svg viewBox="0 0 4 4" x="1111" y="1259" width="74" height="74" shape-rendering="auto"><path fill="#000000" d="M0.85,4A0.85,0.85,0,0,1,0,3.15V4Z"></path></svg><svg viewBox="0 0 4 4" x="1185" y="1259" width="74" height="74" shape-rendering="auto"><rect fill="#000000" width="4" height="4"></rect></svg><svg viewBox="0 0 4 4" x="1259" y="1259" width="74" height="74" shape-rendering="auto"><rect fill="#000000" width="4" height="4"></rect></svg><svg viewBox="0 0 4 4" x="1333" y="1259" width="74" height="74" shape-rendering="auto"><rect fill="#000000" width="4" height="4"></rect></svg><svg viewBox="0 0 4 4" x="1407" y="1259" width="74" height="74" shape-rendering="auto"><path fill="#000000" d="M3.15,4A0.85,0.85,0,0,0,4,3.15V4Z"></path></svg><svg viewBox="0 0 4 4" x="1407" y="1259" width="74" height="74" shape-rendering="auto"><path fill="#000000" d="M0.85,4A0.85,0.85,0,0,1,0,3.15V4Z"></path></svg><svg viewBox="0 0 4 4" x="1481" y="1259" width="74" height="74" shape-rendering="auto"><rect fill="#000000" width="4" height="4"></rect></svg><svg viewBox="0 0 4 4" x="1555" y="1259" width="74" height="74" shape-rendering="auto"><rect fill="#000000" width="4" height="4"></rect></svg><svg viewBox="0 0 4 4" x="1629" y="1259" width="74" height="74" shape-rendering="auto"><rect fill="#000000" width="4" height="4"></rect></svg><svg viewBox="0 0 4 4" x="815" y="1333" width="74" height="74" shape-rendering="auto"><rect fill="#000000" width="4" height="4"></rect></svg><svg viewBox="0 0 4 4" x="889" y="1333" width="74" height="74" shape-rendering="auto"><path fill="#000000" d="M3.15,4A0.85,0.85,0,0,0,4,3.15V4Z"></path></svg><svg viewBox="0 0 4 4" x="889" y="1333" width="74" height="74" shape-rendering="auto"><path fill="#000000" d="M0.85,4A0.85,0.85,0,0,1,0,3.15V4Z"></path></svg><svg viewBox="0 0 4 4" x="963" y="1333" width="74" height="74" shape-rendering="auto"><rect fill="#000000" width="4" height="4"></rect></svg><svg viewBox="0 0 4 4" x="1037" y="1333" width="74" height="74" shape-rendering="auto"><rect fill="#000000" width="4" height="4"></rect></svg><svg viewBox="0 0 4 4" x="1111" y="1333" width="74" height="74" shape-rendering="auto"><rect fill="#000000" width="4" height="4"></rect></svg><svg viewBox="0 0 4 4" x="1185" y="1333" width="74" height="74" shape-rendering="auto"><rect fill="#000000" width="4" height="4"></rect></svg><svg viewBox="0 0 4 4" x="1259" y="1333" width="74" height="74" shape-rendering="auto"><path fill="#000000" d="M0.85,0H0V0.85A0.85,0.85,0,0,1,0.85,0Z"></path></svg><svg viewBox="0 0 4 4" x="1259" y="1333" width="74" height="74" shape-rendering="auto"><path fill="#000000" d="M4,0.85V0H3.15A0.85,0.85,0,0,1,4,0.85Z"></path></svg><svg viewBox="0 0 4 4" x="1259" y="1333" width="74" height="74" shape-rendering="auto"><path fill="#000000" d="M3.15,4A0.85,0.85,0,0,0,4,3.15V4Z"></path></svg><svg viewBox="0 0 4 4" x="1259" y="1333" width="74" height="74" shape-rendering="auto"><path fill="#000000" d="M0.85,4A0.85,0.85,0,0,1,0,3.15V4Z"></path></svg><svg viewBox="0 0 4 4" x="1333" y="1333" width="74" height="74" shape-rendering="auto"><rect fill="#000000" width="4" height="4"></rect></svg><svg viewBox="0 0 4 4" x="1407" y="1333" width="74" height="74" shape-rendering="auto"><rect fill="#000000" width="4" height="4"></rect></svg><svg viewBox="0 0 4 4" x="1481" y="1333" width="74" height="74" shape-rendering="auto"><rect fill="#000000" width="4" height="4"></rect></svg><svg viewBox="0 0 4 4" x="1555" y="1333" width="74" height="74" shape-rendering="auto"><path fill="#000000" d="M0.85,0H0V0.85A0.85,0.85,0,0,1,0.85,0Z"></path></svg><svg viewBox="0 0 4 4" x="1555" y="1333" width="74" height="74" shape-rendering="auto"><path fill="#000000" d="M4,0.85V0H3.15A0.85,0.85,0,0,1,4,0.85Z"></path></svg><svg viewBox="0 0 4 4" x="1555" y="1333" width="74" height="74" shape-rendering="auto"><path fill="#000000" d="M0.85,4A0.85,0.85,0,0,1,0,3.15V4Z"></path></svg><svg viewBox="0 0 4 4" x="1629" y="1333" width="74" height="74" shape-rendering="auto"><path fill="#000000" d="M0,3.15A0.85,0.85,0,0,0,0.85,4h2.3A0.85,0.85,0,0,0,4,3.15V0H0V3.15Z"></path></svg><svg viewBox="0 0 4 4" x="815" y="1407" width="74" height="74" shape-rendering="auto"><path fill="#000000" d="M0,3.15A0.85,0.85,0,0,0,0.85,4H4V0H0V3.15Z"></path></svg><svg viewBox="0 0 4 4" x="889" y="1407" width="74" height="74" shape-rendering="auto"><rect fill="#000000" width="4" height="4"></rect></svg><svg viewBox="0 0 4 4" x="963" y="1407" width="74" height="74" shape-rendering="auto"><rect fill="#000000" width="4" height="4"></rect></svg><svg viewBox="0 0 4 4" x="1037" y="1407" width="74" height="74" shape-rendering="auto"><path fill="#000000" d="M4,3.15A0.85,0.85,0,0,1,3.15,4H0V0H4V3.15Z"></path></svg><svg viewBox="0 0 4 4" x="1111" y="1407" width="74" height="74" shape-rendering="auto"><path fill="#000000" d="M0.85,0H0V0.85A0.85,0.85,0,0,1,0.85,0Z"></path></svg><svg viewBox="0 0 4 4" x="1111" y="1407" width="74" height="74" shape-rendering="auto"><path fill="#000000" d="M4,0.85V0H3.15A0.85,0.85,0,0,1,4,0.85Z"></path></svg><svg viewBox="0 0 4 4" x="1185" y="1407" width="74" height="74" shape-rendering="auto"><path fill="#000000" d="M0,3.15A0.85,0.85,0,0,0,0.85,4H4V0H0V3.15Z"></path></svg><svg viewBox="0 0 4 4" x="1259" y="1407" width="74" height="74" shape-rendering="auto"><rect fill="#000000" width="4" height="4"></rect></svg><svg viewBox="0 0 4 4" x="1333" y="1407" width="74" height="74" shape-rendering="auto"><path fill="#000000" d="M4,3.15A0.85,0.85,0,0,1,3.15,4H0V0H4V3.15Z"></path></svg><svg viewBox="0 0 4 4" x="1407" y="1407" width="74" height="74" shape-rendering="auto"><path fill="#000000" d="M0.85,0H0V0.85A0.85,0.85,0,0,1,0.85,0Z"></path></svg><svg viewBox="0 0 4 4" x="1407" y="1407" width="74" height="74" shape-rendering="auto"><path fill="#000000" d="M4,0.85V0H3.15A0.85,0.85,0,0,1,4,0.85Z"></path></svg><svg viewBox="0 0 4 4" x="1481" y="1407" width="74" height="74" shape-rendering="auto"><path fill="#000000" d="M0,3.15A0.85,0.85,0,0,0,0.85,4H4V0H0V3.15Z"></path></svg><svg viewBox="0 0 4 4" x="1555" y="1407" width="74" height="74" shape-rendering="auto"><path fill="#000000" d="M3.15,0A0.85,0.85,0,0,1,4,0.85V4H0V0H3.15Z"></path></svg><svg viewBox="0 0 4 4" x="1629" y="1407" width="74" height="74" shape-rendering="auto"><path fill="#000000" d="M0.85,4A0.85,0.85,0,0,1,0,3.15V4Z"></path></svg><svg viewBox="0 0 4 4" x="1703" y="1407" width="74" height="74" shape-rendering="auto"><rect fill="#000000" width="4" height="4" rx="0.85"></rect></svg><svg viewBox="0 0 4 4" x="815" y="1481" width="74" height="74" shape-rendering="auto"><path fill="#000000" d="M4,0.85V0H3.15A0.85,0.85,0,0,1,4,0.85Z"></path></svg><svg viewBox="0 0 4 4" x="815" y="1481" width="74" height="74" shape-rendering="auto"><path fill="#000000" d="M3.15,4A0.85,0.85,0,0,0,4,3.15V4Z"></path></svg><svg viewBox="0 0 4 4" x="889" y="1481" width="74" height="74" shape-rendering="auto"><rect fill="#000000" width="4" height="4"></rect></svg><svg viewBox="0 0 4 4" x="963" y="1481" width="74" height="74" shape-rendering="auto"><path fill="#000000" d="M0.85,0H0V0.85A0.85,0.85,0,0,1,0.85,0Z"></path></svg><svg viewBox="0 0 4 4" x="963" y="1481" width="74" height="74" shape-rendering="auto"><path fill="#000000" d="M0.85,4A0.85,0.85,0,0,1,0,3.15V4Z"></path></svg><svg viewBox="0 0 4 4" x="1185" y="1481" width="74" height="74" shape-rendering="auto"><path fill="#000000" d="M4,0.85V0H3.15A0.85,0.85,0,0,1,4,0.85Z"></path></svg><svg viewBox="0 0 4 4" x="1259" y="1481" width="74" height="74" shape-rendering="auto"><path fill="#000000" d="M0,3.15A0.85,0.85,0,0,0,0.85,4h2.3A0.85,0.85,0,0,0,4,3.15V0H0V3.15Z"></path></svg><svg viewBox="0 0 4 4" x="1333" y="1481" width="74" height="74" shape-rendering="auto"><path fill="#000000" d="M0.85,0H0V0.85A0.85,0.85,0,0,1,0.85,0Z"></path></svg><svg viewBox="0 0 4 4" x="1481" y="1481" width="74" height="74" shape-rendering="auto"><path fill="#000000" d="M4,0.85V0H3.15A0.85,0.85,0,0,1,4,0.85Z"></path></svg><svg viewBox="0 0 4 4" x="1555" y="1481" width="74" height="74" shape-rendering="auto"><path fill="#000000" d="M0,3.15A0.85,0.85,0,0,0,0.85,4H4V0H0V3.15Z"></path></svg><svg viewBox="0 0 4 4" x="1629" y="1481" width="74" height="74" shape-rendering="auto"><path fill="#000000" d="M0.85,4h2.3A0.85,0.85,0,0,0,4,3.15V0.85A0.85,0.85,0,0,0,3.15,0H0V4Z"></path></svg><svg viewBox="0 0 4 4" x="815" y="1555" width="74" height="74" shape-rendering="auto"><path fill="#000000" d="M0.85,0A0.85,0.85,0,0,0,0,0.85V4H4V0H0.85Z"></path></svg><svg viewBox="0 0 4 4" x="889" y="1555" width="74" height="74" shape-rendering="auto"><rect fill="#000000" width="4" height="4"></rect></svg><svg viewBox="0 0 4 4" x="963" y="1555" width="74" height="74" shape-rendering="auto"><path fill="#000000" d="M3.15,0A0.85,0.85,0,0,1,4,0.85V4H0V0H3.15Z"></path></svg><svg viewBox="0 0 4 4" x="1111" y="1555" width="74" height="74" shape-rendering="auto"><rect fill="#000000" width="4" height="4" rx="0.85"></rect></svg><svg viewBox="0 0 4 4" x="1407" y="1555" width="74" height="74" shape-rendering="auto"><rect fill="#000000" width="4" height="4" rx="0.85"></rect></svg><svg viewBox="0 0 4 4" x="1629" y="1555" width="74" height="74" shape-rendering="auto"><path fill="#000000" d="M3.15,4A0.85,0.85,0,0,0,4,3.15V4Z"></path></svg><svg viewBox="0 0 4 4" x="1703" y="1555" width="74" height="74" shape-rendering="auto"><path fill="#000000" d="M4,3.15V0.85A0.85,0.85,0,0,0,3.15,0H0.85A0.85,0.85,0,0,0,0,0.85V4H4Z"></path></svg><svg viewBox="0 0 4 4" x="815" y="1629" width="74" height="74" shape-rendering="auto"><rect fill="#000000" width="4" height="4"></rect></svg><svg viewBox="0 0 4 4" x="889" y="1629" width="74" height="74" shape-rendering="auto"><path fill="#000000" d="M0.85,0H0V0.85A0.85,0.85,0,0,1,0.85,0Z"></path></svg><svg viewBox="0 0 4 4" x="889" y="1629" width="74" height="74" shape-rendering="auto"><path fill="#000000" d="M4,0.85V0H3.15A0.85,0.85,0,0,1,4,0.85Z"></path></svg><svg viewBox="0 0 4 4" x="889" y="1629" width="74" height="74" shape-rendering="auto"><path fill="#000000" d="M3.15,4A0.85,0.85,0,0,0,4,3.15V4Z"></path></svg><svg viewBox="0 0 4 4" x="889" y="1629" width="74" height="74" shape-rendering="auto"><path fill="#000000" d="M0.85,4A0.85,0.85,0,0,1,0,3.15V4Z"></path></svg><svg viewBox="0 0 4 4" x="963" y="1629" width="74" height="74" shape-rendering="auto"><rect fill="#000000" width="4" height="4"></rect></svg><svg viewBox="0 0 4 4" x="1259" y="1629" width="74" height="74" shape-rendering="auto"><path fill="#000000" d="M4,3.15V0.85A0.85,0.85,0,0,0,3.15,0H0.85A0.85,0.85,0,0,0,0,0.85V4H4Z"></path></svg><svg viewBox="0 0 4 4" x="1555" y="1629" width="74" height="74" shape-rendering="auto"><path fill="#000000" d="M0.85,0A0.85,0.85,0,0,0,0,0.85V4H4V0H0.85Z"></path></svg><svg viewBox="0 0 4 4" x="1629" y="1629" width="74" height="74" shape-rendering="auto"><rect fill="#000000" width="4" height="4"></rect></svg><svg viewBox="0 0 4 4" x="1703" y="1629" width="74" height="74" shape-rendering="auto"><rect fill="#000000" width="4" height="4"></rect></svg><svg viewBox="0 0 4 4" x="815" y="1703" width="74" height="74" shape-rendering="auto"><path fill="#000000" d="M0,3.15A0.85,0.85,0,0,0,0.85,4H4V0H0V3.15Z"></path></svg><svg viewBox="0 0 4 4" x="889" y="1703" width="74" height="74" shape-rendering="auto"><rect fill="#000000" width="4" height="4"></rect></svg><svg viewBox="0 0 4 4" x="963" y="1703" width="74" height="74" shape-rendering="auto"><path fill="#000000" d="M4,3.15A0.85,0.85,0,0,1,3.15,4H0V0H4V3.15Z"></path></svg><svg viewBox="0 0 4 4" x="1111" y="1703" width="74" height="74" shape-rendering="auto"><rect fill="#000000" width="4" height="4" rx="0.85"></rect></svg><svg viewBox="0 0 4 4" x="1259" y="1703" width="74" height="74" shape-rendering="auto"><path fill="#000000" d="M0,3.15A0.85,0.85,0,0,0,0.85,4h2.3A0.85,0.85,0,0,0,4,3.15V0H0V3.15Z"></path></svg><svg viewBox="0 0 4 4" x="1407" y="1703" width="74" height="74" shape-rendering="auto"><rect fill="#000000" width="4" height="4" rx="0.85"></rect></svg><svg viewBox="0 0 4 4" x="1555" y="1703" width="74" height="74" shape-rendering="auto"><path fill="#000000" d="M0,3.15A0.85,0.85,0,0,0,0.85,4h2.3A0.85,0.85,0,0,0,4,3.15V0H0V3.15Z"></path></svg><svg viewBox="0 0 4 4" x="1629" y="1703" width="74" height="74" shape-rendering="auto"><path fill="#000000" d="M0.85,0H0V0.85A0.85,0.85,0,0,1,0.85,0Z"></path></svg><svg viewBox="0 0 4 4" x="1629" y="1703" width="74" height="74" shape-rendering="auto"><path fill="#000000" d="M4,0.85V0H3.15A0.85,0.85,0,0,1,4,0.85Z"></path></svg><svg viewBox="0 0 4 4" x="1703" y="1703" width="74" height="74" shape-rendering="auto"><path fill="#000000" d="M0,3.15A0.85,0.85,0,0,0,0.85,4h2.3A0.85,0.85,0,0,0,4,3.15V0H0V3.15Z"></path></svg><svg version="1.1" id="Ebene_1" x="223" y="223" width="518" height="518" viewBox="0 0 699.988 699.986" enable-background="new 0 0 699.988 699.986" xml:space="preserve" shape-rendering="auto">
<path fill="#000000" d="M600.99,0h-100h-99.997h-0.001h-99.997h-99.998h-99.998H1v99.998v99.998v99.998v99.999v99.997v99.998v99.998  h99.999h99.998h99.998h99.997h0.001h99.997h100h99.998v-99.998V499.99v-99.997v-99.999v-99.998V99.998V0H600.99z M600.99,199.996  v99.998v99.999v99.997v99.998h-100h-99.997h-0.001h-99.997h-99.998h-99.998V499.99v-99.997v-99.999v-99.998V99.998h99.998h99.998  h99.997h0.001h99.997h100V199.996z"></path>
</svg>
<svg version="1.0" id="Ebene_1" x="223" y="223" width="518" height="518" viewBox="0 0 699.988 699.988" enable-background="new 0 0 699.988 699.988" xml:space="preserve" shape-rendering="auto">
<polygon fill="#000000" points="399.994,199.997 399.992,199.997 299.996,199.997 199.998,199.997 199.998,299.994 199.998,399.994   199.998,499.991 299.996,499.991 399.992,499.991 399.994,499.991 499.99,499.991 499.99,399.994 499.99,299.994 499.99,199.997 "></polygon>
</svg>
<svg version="1.1" id="Ebene_1" x="1259" y="223" width="518" height="518" viewBox="0 0 699.988 699.986" enable-background="new 0 0 699.988 699.986" xml:space="preserve" shape-rendering="auto">
<path fill="#000000" d="M600.99,0h-100h-99.997h-0.001h-99.997h-99.998h-99.998H1v99.998v99.998v99.998v99.999v99.997v99.998v99.998  h99.999h99.998h99.998h99.997h0.001h99.997h100h99.998v-99.998V499.99v-99.997v-99.999v-99.998V99.998V0H600.99z M600.99,199.996  v99.998v99.999v99.997v99.998h-100h-99.997h-0.001h-99.997h-99.998h-99.998V499.99v-99.997v-99.999v-99.998V99.998h99.998h99.998  h99.997h0.001h99.997h100V199.996z"></path>
</svg>
<svg version="1.0" id="Ebene_1" x="1259" y="223" width="518" height="518" viewBox="0 0 699.988 699.988" enable-background="new 0 0 699.988 699.988" xml:space="preserve" shape-rendering="auto">
<polygon fill="#000000" points="399.994,199.997 399.992,199.997 299.996,199.997 199.998,199.997 199.998,299.994 199.998,399.994   199.998,499.991 299.996,499.991 399.992,499.991 399.994,499.991 499.99,499.991 499.99,399.994 499.99,299.994 499.99,199.997 "></polygon>
</svg>
<svg version="1.1" id="Ebene_1" x="223" y="1259" width="518" height="518" viewBox="0 0 699.988 699.986" enable-background="new 0 0 699.988 699.986" xml:space="preserve" shape-rendering="auto">
<path fill="#000000" d="M600.99,0h-100h-99.997h-0.001h-99.997h-99.998h-99.998H1v99.998v99.998v99.998v99.999v99.997v99.998v99.998  h99.999h99.998h99.998h99.997h0.001h99.997h100h99.998v-99.998V499.99v-99.997v-99.999v-99.998V99.998V0H600.99z M600.99,199.996  v99.998v99.999v99.997v99.998h-100h-99.997h-0.001h-99.997h-99.998h-99.998V499.99v-99.997v-99.999v-99.998V99.998h99.998h99.998  h99.997h0.001h99.997h100V199.996z"></path>
</svg>
<svg version="1.0" id="Ebene_1" x="223" y="1259" width="518" height="518" viewBox="0 0 699.988 699.988" enable-background="new 0 0 699.988 699.988" xml:space="preserve" shape-rendering="auto">
<polygon fill="#000000" points="399.994,199.997 399.992,199.997 299.996,199.997 199.998,199.997 199.998,299.994 199.998,399.994   199.998,499.991 299.996,499.991 399.992,499.991 399.994,499.991 499.99,499.991 499.99,399.994 499.99,299.994 499.99,199.997 "></polygon>
</svg>
</svg>

</svg>